<svg width="376" height="50" viewBox="0 0 376 50" fill="none" xmlns="http://www.w3.org/2000/svg">
<g id="Location">
<rect width="375" height="50" transform="translate(0.5)" fill="#EAEAEA"/>
<path id="Icon/Pin" d="M109.383 32.6772C104.843 26.0947 104 25.4192 104 23C104 19.6863 106.686 17 110 17C113.314 17 116 19.6863 116 23C116 25.4192 115.157 26.0947 110.617 32.6772C110.319 33.1076 109.681 33.1076 109.383 32.6772ZM110 25.5C111.381 25.5 112.5 24.3807 112.5 23C112.5 21.6193 111.381 20.5 110 20.5C108.619 20.5 107.5 21.6193 107.5 23C107.5 24.3807 108.619 25.5 110 25.5Z" fill="#353535"/>
<path id="New York, Brooklyn" d="M143.18 19.125V30.5H141.219L136.117 22.3516V30.5H134.156V19.125H136.117L141.234 27.2891V19.125H143.18ZM149.055 30.6562C148.43 30.6562 147.865 30.5547 147.359 30.3516C146.859 30.1432 146.432 29.8542 146.078 29.4844C145.729 29.1146 145.461 28.6797 145.273 28.1797C145.086 27.6797 144.992 27.1406 144.992 26.5625V26.25C144.992 25.5885 145.089 24.9896 145.281 24.4531C145.474 23.9167 145.742 23.4583 146.086 23.0781C146.43 22.6927 146.836 22.3984 147.305 22.1953C147.773 21.9922 148.281 21.8906 148.828 21.8906C149.432 21.8906 149.961 21.9922 150.414 22.1953C150.867 22.3984 151.242 22.6849 151.539 23.0547C151.841 23.4193 152.065 23.8542 152.211 24.3594C152.362 24.8646 152.438 25.4219 152.438 26.0312V26.8359H145.906V25.4844H150.578V25.3359C150.568 24.9974 150.5 24.6797 150.375 24.3828C150.255 24.0859 150.07 23.8464 149.82 23.6641C149.57 23.4818 149.237 23.3906 148.82 23.3906C148.508 23.3906 148.229 23.4583 147.984 23.5938C147.745 23.724 147.544 23.9141 147.383 24.1641C147.221 24.4141 147.096 24.7161 147.008 25.0703C146.924 25.4193 146.883 25.8125 146.883 26.25V26.5625C146.883 26.9323 146.932 27.276 147.031 27.5938C147.135 27.9062 147.286 28.1797 147.484 28.4141C147.682 28.6484 147.922 28.8333 148.203 28.9688C148.484 29.099 148.805 29.1641 149.164 29.1641C149.617 29.1641 150.021 29.0729 150.375 28.8906C150.729 28.7083 151.036 28.4505 151.297 28.1172L152.289 29.0781C152.107 29.3438 151.87 29.599 151.578 29.8438C151.286 30.0833 150.93 30.2786 150.508 30.4297C150.091 30.5807 149.607 30.6562 149.055 30.6562ZM156.203 28.625L158.156 22.0469H159.359L159.031 24.0156L157.062 30.5H155.984L156.203 28.625ZM155.055 22.0469L156.578 28.6562L156.703 30.5H155.5L153.211 22.0469H155.055ZM161.188 28.5781L162.664 22.0469H164.5L162.219 30.5H161.016L161.188 28.5781ZM159.562 22.0469L161.492 28.5469L161.734 30.5H160.656L158.664 24.0078L158.336 22.0469H159.562ZM171.039 19.125L173.68 24.5547L176.32 19.125H178.492L174.664 26.3125V30.5H172.688V26.3125L168.859 19.125H171.039ZM178.672 26.3672V26.1875C178.672 25.5781 178.76 25.013 178.938 24.4922C179.115 23.9661 179.37 23.5104 179.703 23.125C180.042 22.7344 180.453 22.4323 180.938 22.2188C181.427 22 181.979 21.8906 182.594 21.8906C183.214 21.8906 183.766 22 184.25 22.2188C184.74 22.4323 185.154 22.7344 185.492 23.125C185.831 23.5104 186.089 23.9661 186.266 24.4922C186.443 25.013 186.531 25.5781 186.531 26.1875V26.3672C186.531 26.9766 186.443 27.5417 186.266 28.0625C186.089 28.5833 185.831 29.0391 185.492 29.4297C185.154 29.8151 184.742 30.1172 184.258 30.3359C183.773 30.5495 183.224 30.6562 182.609 30.6562C181.99 30.6562 181.435 30.5495 180.945 30.3359C180.461 30.1172 180.049 29.8151 179.711 29.4297C179.372 29.0391 179.115 28.5833 178.938 28.0625C178.76 27.5417 178.672 26.9766 178.672 26.3672ZM180.555 26.1875V26.3672C180.555 26.7474 180.594 27.1068 180.672 27.4453C180.75 27.7839 180.872 28.0807 181.039 28.3359C181.206 28.5911 181.419 28.7917 181.68 28.9375C181.94 29.0833 182.25 29.1562 182.609 29.1562C182.958 29.1562 183.26 29.0833 183.516 28.9375C183.776 28.7917 183.99 28.5911 184.156 28.3359C184.323 28.0807 184.445 27.7839 184.523 27.4453C184.607 27.1068 184.648 26.7474 184.648 26.3672V26.1875C184.648 25.8125 184.607 25.4583 184.523 25.125C184.445 24.7865 184.32 24.487 184.148 24.2266C183.982 23.9661 183.768 23.763 183.508 23.6172C183.253 23.4661 182.948 23.3906 182.594 23.3906C182.24 23.3906 181.932 23.4661 181.672 23.6172C181.417 23.763 181.206 23.9661 181.039 24.2266C180.872 24.487 180.75 24.7865 180.672 25.125C180.594 25.4583 180.555 25.8125 180.555 26.1875ZM190 23.6562V30.5H188.117V22.0469H189.914L190 23.6562ZM192.586 21.9922L192.57 23.7422C192.456 23.7214 192.331 23.7057 192.195 23.6953C192.065 23.6849 191.935 23.6797 191.805 23.6797C191.482 23.6797 191.198 23.7266 190.953 23.8203C190.708 23.9089 190.503 24.0391 190.336 24.2109C190.174 24.3776 190.049 24.5807 189.961 24.8203C189.872 25.0599 189.82 25.3281 189.805 25.625L189.375 25.6562C189.375 25.125 189.427 24.6328 189.531 24.1797C189.635 23.7266 189.792 23.3281 190 22.9844C190.214 22.6406 190.479 22.3724 190.797 22.1797C191.12 21.987 191.492 21.8906 191.914 21.8906C192.029 21.8906 192.151 21.901 192.281 21.9219C192.417 21.9427 192.518 21.9661 192.586 21.9922ZM195.664 18.5V30.5H193.773V18.5H195.664ZM200.914 22.0469L197.234 26.125L195.219 28.1875L194.727 26.5938L196.25 24.7109L198.641 22.0469H200.914ZM199.047 30.5L196.305 26.5312L197.492 25.2109L201.227 30.5H199.047ZM203.875 28.6875L203.867 30.0312C203.867 30.5625 203.734 31.1094 203.469 31.6719C203.203 32.2344 202.852 32.6979 202.414 33.0625L201.406 32.4766C201.552 32.2422 201.685 32.0052 201.805 31.7656C201.924 31.526 202.021 31.2708 202.094 31C202.167 30.7292 202.203 30.4297 202.203 30.1016V28.6875H203.875ZM214.125 25.3594H211.227L211.211 23.9297H213.742C214.169 23.9297 214.531 23.8672 214.828 23.7422C215.13 23.612 215.359 23.4271 215.516 23.1875C215.672 22.9427 215.75 22.6484 215.75 22.3047C215.75 21.9245 215.677 21.6146 215.531 21.375C215.385 21.1354 215.161 20.9609 214.859 20.8516C214.562 20.7422 214.182 20.6875 213.719 20.6875H211.82V30.5H209.859V19.125H213.719C214.344 19.125 214.901 19.1849 215.391 19.3047C215.885 19.4245 216.305 19.612 216.648 19.8672C216.997 20.1172 217.26 20.4349 217.438 20.8203C217.62 21.2057 217.711 21.6641 217.711 22.1953C217.711 22.6641 217.599 23.0938 217.375 23.4844C217.151 23.8698 216.82 24.1849 216.383 24.4297C215.945 24.6745 215.401 24.8203 214.75 24.8672L214.125 25.3594ZM214.039 30.5H210.609L211.492 28.9453H214.039C214.482 28.9453 214.852 28.8724 215.148 28.7266C215.445 28.5755 215.667 28.3698 215.812 28.1094C215.964 27.8438 216.039 27.5339 216.039 27.1797C216.039 26.8099 215.974 26.4896 215.844 26.2188C215.714 25.9427 215.508 25.7318 215.227 25.5859C214.945 25.4349 214.578 25.3594 214.125 25.3594H211.922L211.938 23.9297H214.805L215.25 24.4688C215.875 24.4896 216.388 24.6276 216.789 24.8828C217.195 25.138 217.497 25.4688 217.695 25.875C217.893 26.2812 217.992 26.7188 217.992 27.1875C217.992 27.9115 217.833 28.5182 217.516 29.0078C217.203 29.4974 216.753 29.8698 216.164 30.125C215.576 30.375 214.867 30.5 214.039 30.5ZM221.672 23.6562V30.5H219.789V22.0469H221.586L221.672 23.6562ZM224.258 21.9922L224.242 23.7422C224.128 23.7214 224.003 23.7057 223.867 23.6953C223.737 23.6849 223.607 23.6797 223.477 23.6797C223.154 23.6797 222.87 23.7266 222.625 23.8203C222.38 23.9089 222.174 24.0391 222.008 24.2109C221.846 24.3776 221.721 24.5807 221.633 24.8203C221.544 25.0599 221.492 25.3281 221.477 25.625L221.047 25.6562C221.047 25.125 221.099 24.6328 221.203 24.1797C221.307 23.7266 221.464 23.3281 221.672 22.9844C221.885 22.6406 222.151 22.3724 222.469 22.1797C222.792 21.987 223.164 21.8906 223.586 21.8906C223.701 21.8906 223.823 21.901 223.953 21.9219C224.089 21.9427 224.19 21.9661 224.258 21.9922ZM224.875 26.3672V26.1875C224.875 25.5781 224.964 25.013 225.141 24.4922C225.318 23.9661 225.573 23.5104 225.906 23.125C226.245 22.7344 226.656 22.4323 227.141 22.2188C227.63 22 228.182 21.8906 228.797 21.8906C229.417 21.8906 229.969 22 230.453 22.2188C230.943 22.4323 231.357 22.7344 231.695 23.125C232.034 23.5104 232.292 23.9661 232.469 24.4922C232.646 25.013 232.734 25.5781 232.734 26.1875V26.3672C232.734 26.9766 232.646 27.5417 232.469 28.0625C232.292 28.5833 232.034 29.0391 231.695 29.4297C231.357 29.8151 230.945 30.1172 230.461 30.3359C229.977 30.5495 229.427 30.6562 228.812 30.6562C228.193 30.6562 227.638 30.5495 227.148 30.3359C226.664 30.1172 226.253 29.8151 225.914 29.4297C225.576 29.0391 225.318 28.5833 225.141 28.0625C224.964 27.5417 224.875 26.9766 224.875 26.3672ZM226.758 26.1875V26.3672C226.758 26.7474 226.797 27.1068 226.875 27.4453C226.953 27.7839 227.076 28.0807 227.242 28.3359C227.409 28.5911 227.622 28.7917 227.883 28.9375C228.143 29.0833 228.453 29.1562 228.812 29.1562C229.161 29.1562 229.464 29.0833 229.719 28.9375C229.979 28.7917 230.193 28.5911 230.359 28.3359C230.526 28.0807 230.648 27.7839 230.727 27.4453C230.81 27.1068 230.852 26.7474 230.852 26.3672V26.1875C230.852 25.8125 230.81 25.4583 230.727 25.125C230.648 24.7865 230.523 24.487 230.352 24.2266C230.185 23.9661 229.971 23.763 229.711 23.6172C229.456 23.4661 229.151 23.3906 228.797 23.3906C228.443 23.3906 228.135 23.4661 227.875 23.6172C227.62 23.763 227.409 23.9661 227.242 24.2266C227.076 24.487 226.953 24.7865 226.875 25.125C226.797 25.4583 226.758 25.8125 226.758 26.1875ZM233.953 26.3672V26.1875C233.953 25.5781 234.042 25.013 234.219 24.4922C234.396 23.9661 234.651 23.5104 234.984 23.125C235.323 22.7344 235.734 22.4323 236.219 22.2188C236.708 22 237.26 21.8906 237.875 21.8906C238.495 21.8906 239.047 22 239.531 22.2188C240.021 22.4323 240.435 22.7344 240.773 23.125C241.112 23.5104 241.37 23.9661 241.547 24.4922C241.724 25.013 241.812 25.5781 241.812 26.1875V26.3672C241.812 26.9766 241.724 27.5417 241.547 28.0625C241.37 28.5833 241.112 29.0391 240.773 29.4297C240.435 29.8151 240.023 30.1172 239.539 30.3359C239.055 30.5495 238.505 30.6562 237.891 30.6562C237.271 30.6562 236.716 30.5495 236.227 30.3359C235.742 30.1172 235.331 29.8151 234.992 29.4297C234.654 29.0391 234.396 28.5833 234.219 28.0625C234.042 27.5417 233.953 26.9766 233.953 26.3672ZM235.836 26.1875V26.3672C235.836 26.7474 235.875 27.1068 235.953 27.4453C236.031 27.7839 236.154 28.0807 236.32 28.3359C236.487 28.5911 236.701 28.7917 236.961 28.9375C237.221 29.0833 237.531 29.1562 237.891 29.1562C238.24 29.1562 238.542 29.0833 238.797 28.9375C239.057 28.7917 239.271 28.5911 239.438 28.3359C239.604 28.0807 239.727 27.7839 239.805 27.4453C239.888 27.1068 239.93 26.7474 239.93 26.3672V26.1875C239.93 25.8125 239.888 25.4583 239.805 25.125C239.727 24.7865 239.602 24.487 239.43 24.2266C239.263 23.9661 239.049 23.763 238.789 23.6172C238.534 23.4661 238.229 23.3906 237.875 23.3906C237.521 23.3906 237.214 23.4661 236.953 23.6172C236.698 23.763 236.487 23.9661 236.32 24.2266C236.154 24.487 236.031 24.7865 235.953 25.125C235.875 25.4583 235.836 25.8125 235.836 26.1875ZM245.289 18.5V30.5H243.398V18.5H245.289ZM250.539 22.0469L246.859 26.125L244.844 28.1875L244.352 26.5938L245.875 24.7109L248.266 22.0469H250.539ZM248.672 30.5L245.93 26.5312L247.117 25.2109L250.852 30.5H248.672ZM253.75 18.5V30.5H251.859V18.5H253.75ZM258.266 29.5781L260.562 22.0469H262.578L259.188 31.7891C259.109 31.9974 259.008 32.224 258.883 32.4688C258.758 32.7135 258.594 32.9453 258.391 33.1641C258.193 33.388 257.945 33.5677 257.648 33.7031C257.352 33.8438 256.992 33.9141 256.57 33.9141C256.404 33.9141 256.242 33.8984 256.086 33.8672C255.935 33.8411 255.792 33.8125 255.656 33.7812L255.648 32.3438C255.701 32.349 255.763 32.3542 255.836 32.3594C255.914 32.3646 255.977 32.3672 256.023 32.3672C256.336 32.3672 256.596 32.3281 256.805 32.25C257.013 32.1771 257.182 32.0573 257.312 31.8906C257.448 31.724 257.562 31.5 257.656 31.2188L258.266 29.5781ZM256.969 22.0469L258.977 28.375L259.312 30.3594L258.008 30.6953L254.938 22.0469H256.969ZM265.523 23.8516V30.5H263.641V22.0469H265.414L265.523 23.8516ZM265.188 25.9609L264.578 25.9531C264.583 25.3542 264.667 24.8047 264.828 24.3047C264.995 23.8047 265.224 23.375 265.516 23.0156C265.812 22.6562 266.167 22.3802 266.578 22.1875C266.99 21.9896 267.448 21.8906 267.953 21.8906C268.359 21.8906 268.727 21.9479 269.055 22.0625C269.388 22.1719 269.672 22.3516 269.906 22.6016C270.146 22.8516 270.328 23.1771 270.453 23.5781C270.578 23.974 270.641 24.4609 270.641 25.0391V30.5H268.75V25.0312C268.75 24.625 268.69 24.3047 268.57 24.0703C268.456 23.8307 268.286 23.6615 268.062 23.5625C267.844 23.4583 267.57 23.4062 267.242 23.4062C266.919 23.4062 266.63 23.474 266.375 23.6094C266.12 23.7448 265.904 23.9297 265.727 24.1641C265.555 24.3984 265.422 24.6693 265.328 24.9766C265.234 25.2839 265.188 25.612 265.188 25.9609Z" fill="#353535"/>
</g>
</svg>
